<svg xmlns="http://www.w3.org/2000/svg" viewBox="0 0 50 50"><defs><style>.a{fill:none;stroke:#000;stroke-miterlimit:10;stroke-width:0.5px;}</style></defs><title>icon-im-trust-refundvector</title><path class="a" d="M33,29.5h3.5a1.4,1.4,0,0,0,1.4-1.4v-.5"/><path class="a" d="M17,22.3V36.5l7.8,1.7h9.9a1.4,1.4,0,0,0,1.4-1.4v-.5"/><path class="a" d="M33.5,25.1h3.9a1.5,1.5,0,0,0,1.5-1.4V22.2a1.5,1.5,0,0,0-1.5-1.5H28.8l1-4.4a3.7,3.7,0,0,0,.1-1.8l-.6-3.7a1.3,1.3,0,0,0-1.2-1.1H26.8a1.3,1.3,0,0,0-1.2,1.1l-.5,3.7-1,2.7a5.1,5.1,0,0,1-1.9,2.2l-1.9,1"/><path class="a" d="M32.5,33.9h2.9a1.5,1.5,0,0,0,1.5-1.4V32"/><polyline class="a" points="11.1 20.3 17 20.3 17 37.9 11.1 37.9 11.1 23.4"/><line class="a" x1="14.1" y1="34" x2="14.1" y2="34.7"/><line class="a" x1="27.1" y1="6.6" x2="27.1" y2="5.7"/><line class="a" x1="32.3" y1="11.9" x2="33.2" y2="11.9"/><line class="a" x1="21.5" y1="11.9" x2="22.4" y2="11.9"/><line class="a" x1="23.4" y1="8.4" x2="22.8" y2="7.8"/><line class="a" x1="30.9" y1="8.4" x2="31.4" y2="7.8"/></svg>