<svg xmlns="http://www.w3.org/2000/svg" viewBox="0 0 50 50"><defs><style>.a{fill:none;stroke:#000;stroke-miterlimit:10;stroke-width:0.5px;}</style></defs><title>icon-im-trust-timevector</title><path class="a" d="M25,40A15,15,0,1,1,40,25"/><line class="a" x1="25" y1="10" x2="25" y2="12.3"/><line class="a" x1="25" y1="37.7" x2="25" y2="40"/><line class="a" x1="14.4" y1="14.4" x2="16" y2="16"/><line class="a" x1="10" y1="25" x2="12.3" y2="25"/><line class="a" x1="37.7" y1="25" x2="40" y2="25"/><line class="a" x1="14.4" y1="35.6" x2="16" y2="34"/><line class="a" x1="34" y1="16" x2="35.6" y2="14.4"/><line class="a" x1="31.5" y1="18.5" x2="26.4" y2="23.6"/><line class="a" x1="23.7" y1="23.5" x2="21.1" y2="21"/><circle class="a" cx="25" cy="25" r="2"/><polyline class="a" points="28.3 30.3 28.3 29.1 32.9 29.1 32.9 30.8 28.5 36.2 28.5 38.4 32.9 38.4"/><polyline class="a" points="35.1 29.1 35.1 33.7 38.4 33.7"/><line class="a" x1="39.2" y1="29.1" x2="39.2" y2="38.4"/></svg>