<svg xmlns="http://www.w3.org/2000/svg" viewBox="0 0 50 50"><defs><style>.a{fill:none;stroke:#000;stroke-miterlimit:10;stroke-width:0.5px;}</style></defs><title>icon-im-trust-securevector</title><rect class="a" x="29.6" y="31.9" width="9.9" height="7.62"/><path class="a" d="M36.1,35.2a1.5,1.5,0,1,1-1.5-1.5A1.5,1.5,0,0,1,36.1,35.2Z"/><line class="a" x1="34.6" y1="36.6" x2="34.6" y2="37"/><path class="a" d="M38,29.2a2.6,2.6,0,0,0-2.5-2H33.7a2.6,2.6,0,0,0-2.6,2.6v2.1"/><path class="a" d="M42.5,35.4h1.1A1.4,1.4,0,0,0,45,34V11.9a1.4,1.4,0,0,0-1.4-1.4H6.4A1.4,1.4,0,0,0,5,11.9V34a1.4,1.4,0,0,0,1.4,1.4H26.7"/><line class="a" x1="5" y1="15.7" x2="45" y2="15.7"/><line class="a" x1="5" y1="21" x2="41.6" y2="21"/><path class="a" d="M12.5,30a2,2,0,0,1-2,1.9A2,2,0,0,1,8.6,30a2,2,0,1,1,3.9,0Z"/><line class="a" x1="15.4" y1="31.9" x2="17.5" y2="31.9"/><line class="a" x1="15.4" y1="28" x2="23.2" y2="28"/><line class="a" x1="20.3" y1="31.9" x2="25.2" y2="31.9"/></svg>