<svg xmlns="http://www.w3.org/2000/svg" viewBox="0 0 50 50"><defs><style>.a{fill:none;stroke:#000;stroke-miterlimit:10;stroke-width:0.5px;}</style></defs><title>icon-im-trust-guaranteevector</title><circle class="a" cx="25" cy="20.2" r="7.8"/><path class="a" d="M25,33.4c-1.3,0-2.3-2.2-3.5-2.5s-3.3.7-4.3,0-.5-3.1-1.3-4.1-3.1-1.3-3.5-2.5,1.4-2.8,1.4-4.1-1.8-2.9-1.4-4.1,2.8-1.5,3.5-2.5.3-3.4,1.3-4.2,3.1.5,4.3.1S23.7,6.9,25,6.9s2.3,2.2,3.5,2.6,3.3-.8,4.3-.1.5,3.1,1.3,4.2,3.1,1.2,3.5,2.5-1.4,2.8-1.4,4.1,1.8,2.9,1.4,4.1-2.8,1.4-3.5,2.5-.3,3.3-1.3,4.1-3.1-.4-4.3,0S26.3,33.4,25,33.4Z"/><polygon class="a" points="25 22.4 27.5 23.7 27 20.9 29 18.9 26.3 18.5 25 16 23.7 18.5 21 18.9 23 20.9 22.5 23.7 25 22.4"/><polyline class="a" points="30.8 32.8 32.8 41.1 17.2 41.1 19.2 32.8"/><line class="a" x1="21.6" y1="38.6" x2="22.1" y2="34.6"/><line class="a" x1="27.9" y1="34.6" x2="28.4" y2="38.6"/></svg>