<?xml version="1.0" encoding="utf-8"?>
<!-- Generator: Adobe Illustrator 24.0.0, SVG Export Plug-In . SVG Version: 6.00 Build 0)  -->
<svg version="1.1" id="Calque_1" xmlns="http://www.w3.org/2000/svg" xmlns:xlink="http://www.w3.org/1999/xlink" x="0px" y="0px"
	 viewBox="0 0 350 45" style="enable-background:new 0 0 350 45;" xml:space="preserve">
<style type="text/css">
	.st0{fill-rule:evenodd;clip-rule:evenodd;fill:#0E4595;}
	.st1{fill:#D9222A;}
	.st2{fill:#EE9F2D;}
	.st3{fill:#FFFFFF;}
	.st4{fill:#003087;}
	.st5{fill:#009CDE;}
	.st6{fill:#0E4595;}
	.st7{fill:#F2AE14;}
</style>
<g>
	<g>
		<path d="M301.6,16.4c0.5-0.6,0.9-1.5,0.8-2.4c-0.8,0-1.7,0.5-2.2,1.1c-0.5,0.5-0.9,1.4-0.8,2.3C300.2,17.5,301,17.1,301.6,16.4
			 M302.3,17.6c-1.2-0.1-2.3,0.7-2.9,0.7s-1.5-0.6-2.5-0.6c-1.3,0-2.4,0.7-3.1,1.9c-1.3,2.3-0.4,5.6,0.9,7.5
			c0.6,0.9,1.4,1.9,2.3,1.9c0.9,0,1.3-0.6,2.4-0.6c1.1,0,1.4,0.6,2.5,0.6c1,0,1.7-0.9,2.3-1.8c0.7-1,1-2.1,1-2.1c0,0-2-0.8-2-3
			c0-1.9,1.5-2.8,1.6-2.8C304.2,17.8,302.8,17.7,302.3,17.6"/>
	</g>
	<g>
		<g>
			<path d="M312.9,15.1c2.7,0,4.5,1.8,4.5,4.5c0,2.7-1.9,4.5-4.6,4.5h-2.9v4.7h-2.1V15.1H312.9z M309.9,22.3h2.4
				c1.8,0,2.9-1,2.9-2.7c0-1.7-1-2.7-2.9-2.7h-2.5L309.9,22.3L309.9,22.3z M318,25.9c0-1.7,1.3-2.8,3.7-3l2.7-0.1v-0.8
				c0-1.1-0.8-1.8-2-1.8c-1.2,0-1.9,0.6-2.1,1.4h-1.9c0.1-1.8,1.7-3.1,4.1-3.1c2.4,0,4,1.3,4,3.3v6.9h-1.9v-1.6h0
				c-0.6,1.1-1.8,1.8-3.1,1.8C319.4,28.9,318,27.7,318,25.9z M324.5,25v-0.8l-2.5,0.1c-1.2,0.1-1.9,0.6-1.9,1.5s0.7,1.4,1.8,1.4
				C323.3,27.3,324.5,26.3,324.5,25L324.5,25z M328.3,32.4v-1.7c0.1,0,0.5,0,0.6,0c0.9,0,1.4-0.4,1.8-1.4c0,0,0.2-0.6,0.2-0.6
				l-3.6-10h2.2L332,27h0l2.5-8.1h2.2L333,29.3c-0.9,2.4-1.8,3.2-3.9,3.2C329,32.5,328.5,32.5,328.3,32.4L328.3,32.4z"/>
		</g>
	</g>
</g>
<g>
	<g id="Cartebleue-Logo">
		<path class="st0" d="M53,18.6c0-2.4-1.9-4.3-4.3-4.3v0H32.9V23h15.8v0C51.1,23,53,21,53,18.6z M53,27.9c0-2.4-1.9-4.3-4.3-4.3v0
			H32.9v8.7h15.8v0C51.1,32.2,53,30.2,53,27.9z M20.9,23.5V23h11.6v-0.7c0-4.4-3.5-7.9-7.9-7.9h-7.4c-4.4,0-7.9,3.5-7.9,7.9v2.1
			c0,4.4,3.5,7.9,7.9,7.9h7.4c4.4,0,7.9-3.5,7.9-7.9v-0.8H20.9L20.9,23.5z"/>
	</g>
</g>
<g>
	<g>
		<path class="st1" d="M107.8,23.3c0,6.2-5.1,11.3-11.3,11.3s-11.3-5.1-11.3-11.3C85.3,17,90.3,12,96.5,12
			C102.8,12,107.8,17,107.8,23.3"/>
	</g>
	<g>
		<path class="st2" d="M111.7,12c-2.9,0-5.6,1.1-7.6,2.9c-0.4,0.4-0.8,0.8-1.1,1.2h2.3c0.3,0.4,0.6,0.8,0.9,1.2h-4
			c-0.2,0.4-0.5,0.8-0.7,1.2h5.3c0.2,0.4,0.3,0.8,0.5,1.2H101c-0.1,0.4-0.2,0.8-0.3,1.2h6.9c0.2,0.8,0.3,1.6,0.3,2.4
			c0,1.3-0.2,2.5-0.6,3.6H101c0.1,0.4,0.3,0.8,0.5,1.2h5.3c-0.2,0.4-0.4,0.8-0.7,1.2h-4c0.3,0.4,0.5,0.8,0.9,1.2h2.3
			c-0.4,0.4-0.7,0.8-1.1,1.2c2,1.8,4.7,2.9,7.6,2.9c6.2,0,11.3-5.1,11.3-11.3C123,17,117.9,12,111.7,12"/>
	</g>
	<g>
		<path class="st3" d="M91.2,26.2H90l0.7-4.4l-1.6,4.4h-0.8l-0.1-4.4l-0.7,4.4h-1.1l1-5.7h1.8l0,3.5l1.2-3.5h1.9L91.2,26.2"/>
	</g>
	<g>
		<path class="st3" d="M94.3,24.2c-0.1,0-0.2,0-0.3,0c-0.7,0-1,0.2-1,0.7c0,0.3,0.2,0.5,0.4,0.5C93.9,25.3,94.2,24.9,94.3,24.2
			L94.3,24.2z M95.2,26.2h-1l0-0.5c-0.3,0.4-0.7,0.6-1.3,0.6c-0.7,0-1.1-0.5-1.1-1.3c0-1.1,0.8-1.8,2.2-1.8c0.1,0,0.3,0,0.5,0
			c0-0.2,0-0.2,0-0.3c0-0.3-0.2-0.4-0.8-0.4c-0.6,0-1.1,0.1-1.3,0.2c0-0.1,0.2-1,0.2-1c0.6-0.2,1-0.2,1.5-0.2c1.1,0,1.6,0.5,1.6,1.4
			c0,0.2,0,0.5-0.1,0.9C95.4,24.4,95.2,25.9,95.2,26.2L95.2,26.2z M111.6,20.7l-0.2,1.2c-0.4-0.2-0.8-0.3-1.1-0.3
			c-0.9,0-1.6,0.9-1.6,2.1c0,0.9,0.4,1.4,1.1,1.4c0.3,0,0.6-0.1,1-0.3l-0.2,1.3c-0.5,0.1-0.7,0.2-1.1,0.2c-1.3,0-2.1-0.9-2.1-2.5
			c0-2,1.1-3.5,2.8-3.5C110.8,20.4,111.4,20.6,111.6,20.7 M113.6,24.2c-0.1,0-0.2,0-0.3,0c-0.7,0-1,0.2-1,0.7c0,0.3,0.2,0.5,0.4,0.5
			C113.2,25.3,113.6,24.9,113.6,24.2L113.6,24.2z M114.5,26.2h-1l0-0.5c-0.3,0.4-0.7,0.6-1.3,0.6c-0.7,0-1.1-0.5-1.1-1.3
			c0-1.1,0.8-1.8,2.2-1.8c0.1,0,0.3,0,0.5,0c0-0.2,0-0.2,0-0.3c0-0.3-0.2-0.4-0.8-0.4c-0.6,0-1.1,0.1-1.3,0.2c0-0.1,0.2-1,0.2-1
			c0.6-0.2,1-0.2,1.5-0.2c1.1,0,1.6,0.5,1.6,1.4c0,0.2,0,0.5-0.1,0.9C114.7,24.4,114.5,25.9,114.5,26.2L114.5,26.2z M100.6,26.2
			c-0.3,0.1-0.6,0.2-0.9,0.2c-0.6,0-1-0.4-1-1c0-0.2,0.1-0.7,0.2-1.2c0.1-0.4,0.5-3.2,0.5-3.2h1.2l-0.1,0.7h0.6l-0.2,1.1h-0.6
			c-0.1,0.9-0.3,2-0.3,2.1c0,0.2,0.1,0.3,0.4,0.3c0.1,0,0.2,0,0.3,0L100.6,26.2 M104.3,26.1c-0.4,0.1-0.8,0.2-1.3,0.2
			c-1.4,0-2.1-0.7-2.1-2.1c0-1.6,0.9-2.8,2.1-2.8c1,0,1.6,0.7,1.6,1.7c0,0.3,0,0.7-0.1,1.1h-2.4c-0.1,0.7,0.4,1,1.1,1
			c0.4,0,0.8-0.1,1.3-0.3L104.3,26.1L104.3,26.1z M103.7,23.4c0-0.1,0.1-0.8-0.6-0.8c-0.4,0-0.7,0.3-0.8,0.8H103.7z M95.9,23.1
			c0,0.6,0.3,1,0.9,1.3c0.5,0.2,0.6,0.3,0.6,0.5c0,0.3-0.2,0.4-0.7,0.4c-0.4,0-0.7-0.1-1.1-0.2c0,0-0.2,1-0.2,1.1
			c0.3,0.1,0.5,0.1,1.3,0.1c1.3,0,1.9-0.5,1.9-1.6c0-0.6-0.2-1-0.9-1.3c-0.5-0.2-0.6-0.3-0.6-0.5c0-0.3,0.2-0.4,0.6-0.4
			c0.2,0,0.6,0,0.9,0.1l0.2-1.1c-0.3-0.1-0.8-0.1-1.1-0.1C96.4,21.5,95.9,22.2,95.9,23.1 M121,26.2h-1.2l0.1-0.4
			c-0.3,0.4-0.7,0.5-1.1,0.5c-0.9,0-1.5-0.8-1.5-1.9c0-1.5,0.9-2.9,2-2.9c0.5,0,0.8,0.2,1.2,0.6l0.3-1.7h1.2L121,26.2L121,26.2z
			 M119.1,25.2c0.6,0,1-0.6,1-1.6c0-0.6-0.2-0.9-0.6-0.9c-0.6,0-1,0.6-1,1.6C118.5,24.9,118.7,25.2,119.1,25.2z M115.6,21.6
			c-0.2,1.4-0.4,2.9-0.6,4.3l-0.1,0.3h1.2c0.4-2.8,0.5-3.4,1.2-3.3c0.1-0.6,0.3-1.1,0.5-1.4c-0.5-0.1-0.8,0.2-1.2,0.7
			c0-0.2,0.1-0.5,0.1-0.7L115.6,21.6 M105.5,21.6c-0.2,1.4-0.4,2.9-0.6,4.3l-0.1,0.3h1.2c0.4-2.8,0.5-3.4,1.2-3.3
			c0.1-0.6,0.3-1.1,0.5-1.4c-0.5-0.1-0.8,0.2-1.2,0.7c0-0.2,0.1-0.5,0.1-0.7L105.5,21.6 M121.5,25.9c0-0.2,0.2-0.4,0.4-0.4h0
			c0.2,0,0.4,0.2,0.4,0.4v0c0,0.2-0.2,0.4-0.4,0.4C121.7,26.2,121.5,26.1,121.5,25.9L121.5,25.9z M121.9,26.2c0.2,0,0.3-0.1,0.3-0.3
			v0c0-0.2-0.1-0.3-0.3-0.3h0c-0.2,0-0.3,0.1-0.3,0.3C121.6,26,121.7,26.2,121.9,26.2L121.9,26.2z M121.8,26L121.8,26l-0.1-0.3h0.1
			c0,0,0.1,0,0.1,0c0,0,0,0,0,0.1c0,0,0,0.1-0.1,0.1L122,26h-0.1l0-0.1h-0.1L121.8,26L121.8,26z M121.8,25.9L121.8,25.9
			C121.9,25.9,121.9,25.9,121.8,25.9c0.1,0,0.1,0,0.1,0C121.9,25.8,121.9,25.8,121.8,25.9C121.9,25.8,121.9,25.8,121.8,25.9
			L121.8,25.9L121.8,25.9L121.8,25.9z"/>
	</g>
</g>
<g>
	<g>
		<path class="st4" d="M226.8,17c-0.7-0.4-1.5-0.7-2.6-0.7h-4.1c-0.3,0-0.5,0.2-0.5,0.5L218,27.2c0,0.1,0,0.2,0.1,0.3
			c0.1,0.1,0.2,0.1,0.3,0.1h1.9c0.3,0,0.5-0.2,0.6-0.5l0.5-2.8c0-0.1,0.1-0.2,0.2-0.3c0.1-0.1,0.2-0.1,0.4-0.2c0.2,0,0.3,0,0.4,0
			c0.1,0,0.3,0,0.5,0c0.2,0,0.3,0,0.4,0c1.5,0,2.6-0.4,3.4-1.2c0.8-0.8,1.2-2,1.2-3.4C227.8,18.2,227.5,17.4,226.8,17L226.8,17z
			 M224.7,20.1c-0.1,0.6-0.3,1-0.7,1.2c-0.4,0.2-0.9,0.3-1.5,0.3l-0.8,0l0.4-2.7c0-0.2,0.1-0.3,0.3-0.3h0.5c0.7,0,1.2,0.1,1.5,0.3
			C224.7,19.1,224.8,19.5,224.7,20.1L224.7,20.1z"/>
	</g>
	<g>
		<path class="st5" d="M269.8,16.3h-1.9c-0.2,0-0.3,0.1-0.3,0.3l-1.7,10.6l0,0.1c0,0.1,0,0.2,0.1,0.2c0.1,0.1,0.2,0.1,0.3,0.1h1.7
			c0.3,0,0.5-0.2,0.5-0.5l1.7-10.4v0C270.1,16.4,270,16.3,269.8,16.3L269.8,16.3z"/>
	</g>
	<g>
		<path class="st4" d="M247.1,20.4c0-0.1,0-0.2-0.1-0.2c-0.1-0.1-0.1-0.1-0.2-0.1h-2c-0.2,0-0.3,0.1-0.5,0.3l-2.7,4l-1.1-3.8
			c-0.1-0.3-0.3-0.4-0.6-0.4H238c-0.1,0-0.2,0-0.2,0.1c-0.1,0.1-0.1,0.2-0.1,0.2c0,0,0.2,0.5,0.5,1.5c0.3,1,0.7,2,1.1,3.1
			c0.4,1.1,0.6,1.7,0.6,1.8c-1.4,1.9-2.1,2.9-2.1,3.1c0,0.2,0.1,0.3,0.3,0.3h2c0.2,0,0.3-0.1,0.5-0.3l6.5-9.4
			C247,20.6,247.1,20.5,247.1,20.4L247.1,20.4z"/>
	</g>
	<g>
		<path class="st5" d="M265.3,20.1h-1.9c-0.2,0-0.4,0.3-0.4,0.8c-0.4-0.7-1.2-1-2.4-1c-1.2,0-2.3,0.5-3.1,1.4
			c-0.9,0.9-1.3,2-1.3,3.2c0,1,0.3,1.8,0.9,2.4c0.6,0.6,1.4,0.9,2.4,0.9c0.5,0,1-0.1,1.5-0.3c0.5-0.2,0.9-0.5,1.2-0.8
			c0,0,0,0.1-0.1,0.2c0,0.1-0.1,0.2-0.1,0.3c0,0.3,0.1,0.4,0.3,0.4h1.8c0.3,0,0.5-0.2,0.6-0.5l1-6.6c0-0.1,0-0.2-0.1-0.3
			C265.5,20.1,265.4,20.1,265.3,20.1L265.3,20.1z M262,25.1c-0.4,0.4-1,0.6-1.6,0.6c-0.5,0-0.9-0.1-1.2-0.4
			c-0.3-0.3-0.5-0.6-0.5-1.1c0-0.6,0.2-1.2,0.6-1.6c0.4-0.4,1-0.6,1.6-0.6c0.5,0,0.9,0.1,1.2,0.4c0.3,0.3,0.5,0.7,0.5,1.2
			C262.6,24.1,262.4,24.7,262,25.1L262,25.1z"/>
	</g>
	<g>
		<path class="st4" d="M236.4,20.1h-1.9c-0.2,0-0.4,0.3-0.4,0.8c-0.5-0.7-1.3-1-2.4-1c-1.2,0-2.3,0.5-3.1,1.4
			c-0.9,0.9-1.3,2-1.3,3.2c0,1,0.3,1.8,0.9,2.4c0.6,0.6,1.4,0.9,2.4,0.9c0.5,0,1-0.1,1.5-0.3c0.5-0.2,0.9-0.5,1.2-0.8
			c-0.1,0.2-0.1,0.4-0.1,0.5c0,0.3,0.1,0.4,0.3,0.4h1.8c0.3,0,0.5-0.2,0.6-0.5l1-6.6c0-0.1,0-0.2-0.1-0.3
			C236.6,20.1,236.5,20.1,236.4,20.1L236.4,20.1z M233.1,25.1c-0.4,0.4-1,0.6-1.6,0.6c-0.5,0-0.9-0.1-1.2-0.4
			c-0.3-0.3-0.4-0.6-0.4-1.1c0-0.6,0.2-1.2,0.6-1.6c0.4-0.4,1-0.6,1.6-0.6c0.5,0,0.9,0.1,1.2,0.4c0.3,0.3,0.5,0.7,0.5,1.2
			C233.7,24.2,233.5,24.7,233.1,25.1L233.1,25.1z"/>
	</g>
	<g>
		<path class="st5" d="M255.7,17c-0.7-0.4-1.5-0.7-2.6-0.7h-4c-0.3,0-0.5,0.2-0.6,0.5l-1.7,10.4c0,0.1,0,0.2,0.1,0.3
			c0.1,0.1,0.2,0.1,0.3,0.1h2.1c0.2,0,0.3-0.1,0.4-0.3l0.5-3c0-0.1,0.1-0.2,0.2-0.3c0.1-0.1,0.2-0.1,0.4-0.2c0.2,0,0.3,0,0.4,0
			c0.1,0,0.3,0,0.5,0c0.2,0,0.3,0,0.4,0c1.5,0,2.6-0.4,3.4-1.2c0.8-0.8,1.2-2,1.2-3.4C256.7,18.2,256.4,17.4,255.7,17L255.7,17z
			 M253.1,21.2c-0.4,0.3-0.9,0.4-1.7,0.4l-0.8,0l0.4-2.7c0-0.2,0.1-0.3,0.3-0.3h0.5c0.4,0,0.7,0,0.9,0.1c0.2,0,0.4,0.1,0.6,0.3
			c0.2,0.2,0.3,0.4,0.3,0.8C253.7,20.4,253.5,20.9,253.1,21.2L253.1,21.2z"/>
	</g>
</g>
<g>
	<g>
		<path class="st6" d="M166.8,30.7l2.5-14.8h4l-2.5,14.8H166.8z M185.4,16.3c-0.8-0.3-2-0.6-3.6-0.6c-4,0-6.8,2-6.8,4.9
			c0,2.1,2,3.3,3.5,4c1.6,0.7,2.1,1.2,2.1,1.8c0,1-1.3,1.4-2.4,1.4c-1.6,0-2.5-0.2-3.8-0.8l-0.5-0.2l-0.6,3.3
			c0.9,0.4,2.7,0.8,4.5,0.8c4.2,0,7-2,7-5c0-1.7-1.1-3-3.4-4c-1.4-0.7-2.3-1.1-2.3-1.8c0-0.6,0.7-1.3,2.3-1.3c1.3,0,2.3,0.3,3,0.6
			l0.4,0.2L185.4,16.3 M195.7,15.9h-3.1c-1,0-1.7,0.3-2.1,1.2l-6,13.5h4.2c0,0,0.7-1.8,0.8-2.2c0.5,0,4.6,0,5.2,0
			c0.1,0.5,0.5,2.2,0.5,2.2h3.7L195.7,15.9L195.7,15.9z M190.8,25.5c0.3-0.9,1.6-4.1,1.6-4.1c0,0,0.3-0.9,0.5-1.4l0.3,1.3
			c0,0,0.8,3.5,0.9,4.3L190.8,25.5L190.8,25.5L190.8,25.5z M163.4,15.9L159.4,26l-0.4-2c-0.7-2.4-3-4.9-5.6-6.2l3.6,12.9l4.3,0
			l6.3-14.8L163.4,15.9"/>
	</g>
	<g>
		<path class="st7" d="M155.7,15.9h-6.5l-0.1,0.3c5.1,1.2,8.4,4.2,9.8,7.7l-1.4-6.8C157.3,16.3,156.6,16,155.7,15.9"/>
	</g>
</g>
</svg>
