<svg xmlns="http://www.w3.org/2000/svg" viewBox="0 0 350 45"><defs><style>.a{fill:#fff;}.b,.g{fill:#0e4595;}.b{fill-rule:evenodd;}.c{fill:#d9222a;}.d{fill:#ee9f2d;}.e{fill:#003087;}.f{fill:#009cde;}.h{fill:#f2ae14;}</style></defs><title>payments-img-trust-white</title><rect class="a" y="3.5" width="60" height="38"/><rect class="a" x="72.5" y="3.5" width="60" height="38"/><rect class="a" x="145" y="3.5" width="60" height="38"/><rect class="a" x="218" y="3.5" width="60" height="38"/><rect class="a" x="290" y="3.5" width="60" height="38"/><path d="M302.1,15.9a3.3,3.3,0,0,0,.7-2.4,4.2,4.2,0,0,0-2.2,1.1,3.2,3.2,0,0,0-.8,2.3,2.6,2.6,0,0,0,2.3-1m.7,1.2c-1.2,0-2.3.7-2.8.7s-1.5-.6-2.5-.6a3.7,3.7,0,0,0-3.1,1.9c-1.3,2.2-.3,5.6,1,7.4s1.4,1.9,2.3,1.9,1.3-.6,2.4-.6,1.5.6,2.5.6a3.3,3.3,0,0,0,2.3-1.9,6.5,6.5,0,0,0,1-2.1,3.2,3.2,0,0,1-2-3,3.5,3.5,0,0,1,1.6-2.8,3.6,3.6,0,0,0-2.7-1.5"/><path d="M313.4,14.6a4.3,4.3,0,0,1,4.5,4.5,4.3,4.3,0,0,1-4.5,4.5h-3v4.6h-2.1V14.6Zm-3,7.2h2.5a2.5,2.5,0,0,0,2.8-2.7,2.5,2.5,0,0,0-2.8-2.7h-2.5v5.4Zm8.1,3.6c0-1.7,1.3-2.8,3.7-2.9l2.8-.2v-.7a1.8,1.8,0,0,0-2-1.8,1.9,1.9,0,0,0-2.1,1.5h-2c.1-1.9,1.7-3.2,4.1-3.2s4,1.3,4,3.3v6.9h-1.9V26.6H325a3.3,3.3,0,0,1-3.1,1.8C319.9,28.4,318.5,27.2,318.5,25.4Zm6.5-.9v-.8l-2.5.2c-1.2.1-1.9.6-1.9,1.5s.7,1.4,1.8,1.4a2.5,2.5,0,0,0,2.6-2.3Zm3.8,7.4V30.3h.7c.9,0,1.4-.4,1.7-1.4l.2-.6-3.6-10H330l2.5,8.2h.1l2.5-8.2h2.2l-3.8,10.5c-.8,2.5-1.8,3.2-3.9,3.2Z"/><path class="b" d="M53.5,18.1a4.3,4.3,0,0,0-4.3-4.3H33.4v8.7H49.2A4.4,4.4,0,0,0,53.5,18.1Zm0,9.3A4.4,4.4,0,0,0,49.2,23H33.4v8.7H49.2A4.3,4.3,0,0,0,53.5,27.4ZM21.4,23v-.5H33.1v-.8a8,8,0,0,0-7.9-7.9H17.8a7.9,7.9,0,0,0-7.9,7.9v2.2a7.9,7.9,0,0,0,7.9,7.9h7.4a8,8,0,0,0,7.9-7.9V23Z"/><path class="c" d="M108.3,22.8A11.3,11.3,0,1,1,97,11.5a11.3,11.3,0,0,1,11.3,11.3"/><path class="d" d="M112.2,11.5a11.4,11.4,0,0,0-7.6,2.9l-1.1,1.2h2.3a8.3,8.3,0,0,1,.8,1.2h-4L102,18h5.3l.5,1.2h-6.3l-.3,1.2h6.9a9.7,9.7,0,0,1,.2,2.4,14.9,14.9,0,0,1-.5,3.6h-6.3a6.1,6.1,0,0,0,.5,1.2h5.3a4.1,4.1,0,0,1-.7,1.1h-4l.9,1.2h2.3a6.8,6.8,0,0,1-1.2,1.2,11,11,0,0,0,7.6,3,11.3,11.3,0,0,0,0-22.6"/><path class="a" d="M91.7,25.7H90.5l.7-4.4-1.5,4.4h-.9V21.4L88,25.7H86.8l1-5.7h1.8v3.6L90.8,20h1.9l-1,5.7"/><path class="a" d="M94.8,23.7h-.3c-.7,0-1.1.3-1.1.8a.5.5,0,0,0,.5.4c.5,0,.8-.4.9-1.1Zm.9,2H94.6v-.4a1.9,1.9,0,0,1-1.3.5,1.1,1.1,0,0,1-1.1-1.2c0-1.2.8-1.8,2.1-1.8h.5c0-.2.1-.2.1-.3s-.3-.4-.8-.4l-1.3.2c0-.1.1-1.1.1-1.1a4.7,4.7,0,0,1,1.5-.2c1.1,0,1.6.5,1.6,1.3a3.8,3.8,0,0,1-.1,1c-.1.6-.3,2.1-.3,2.4Zm16.4-5.5-.2,1.2-1.1-.3c-.9,0-1.6.9-1.6,2.1s.5,1.4,1.2,1.4l1-.3-.2,1.4h-1.1c-1.3,0-2.1-.9-2.1-2.4s1.1-3.5,2.8-3.5a3.5,3.5,0,0,1,1.3.3m2,3.5h-.3c-.7,0-1,.3-1,.8a.4.4,0,0,0,.4.4c.5,0,.9-.4.9-1.1Zm.9,2h-1v-.4a1.7,1.7,0,0,1-1.3.5,1.1,1.1,0,0,1-1.1-1.2c0-1.2.8-1.8,2.1-1.8h.5c.1-.2.1-.2.1-.3s-.2-.4-.8-.4l-1.3.2c0-.1.2-1.1.2-1.1a3.9,3.9,0,0,1,1.4-.2c1.1,0,1.6.5,1.6,1.3a3.8,3.8,0,0,1-.1,1c-.1.6-.3,2.1-.3,2.4Zm-13.9,0h-.9c-.6,0-.9-.3-.9-1a2.7,2.7,0,0,1,.1-1.2l.6-3.2h1.2l-.2.7h.7l-.2,1.1h-.6c-.2.9-.4,2-.4,2.1s.1.4.4.4h.4l-.2,1.1m3.7-.1a2.5,2.5,0,0,1-1.2.2,1.9,1.9,0,0,1-2.1-2.1c0-1.5.9-2.7,2.1-2.7a1.5,1.5,0,0,1,1.7,1.7,2.6,2.6,0,0,1-.2,1.1h-2.4c-.1.7.4,1,1.1,1a2.7,2.7,0,0,0,1.2-.3l-.2,1.1Zm-.6-2.7c0-.1.1-.9-.6-.9s-.7.3-.8.9Zm-7.8-.3a1.5,1.5,0,0,0,.9,1.3c.5.2.6.3.6.5s-.2.4-.7.4l-1.1-.2-.2,1.1h1.3c1.3,0,1.9-.5,1.9-1.5a1.3,1.3,0,0,0-.9-1.3c-.5-.3-.5-.3-.5-.5s.2-.4.6-.4h.8l.2-1.1H98.2c-1.3,0-1.8.7-1.8,1.6m25.1,3.1h-1.2v-.4a1.5,1.5,0,0,1-1.2.5c-.9,0-1.5-.7-1.5-1.9s1-2.9,2-2.9a1.3,1.3,0,0,1,1.2.7l.3-1.7h1.2l-.9,5.7Zm-1.9-1c.6,0,1-.7,1-1.6s-.2-.9-.6-.9-1,.6-1,1.5S119.2,24.7,119.6,24.7Zm-3.5-3.6c-.2,1.4-.5,2.9-.7,4.3v.3h1.2c.4-2.8.5-3.4,1.2-3.3a2.7,2.7,0,0,1,.5-1.3c-.5-.2-.8.1-1.2.7a1.7,1.7,0,0,0,.1-.7h-1.1m-10.1,0c-.2,1.4-.4,2.9-.7,4.3v.3h1.2c.5-2.8.6-3.4,1.2-3.3l.5-1.3c-.5-.2-.8.1-1.2.7a1.7,1.7,0,0,0,.1-.7H106m16,4.3a.4.4,0,0,1,.4-.4h0c.2,0,.3.2.3.4h0a.3.3,0,0,1-.3.3c-.2,0-.4-.1-.4-.3Zm.4.3c.1,0,.2-.2.2-.3h0c0-.2-.1-.3-.2-.3h0a.3.3,0,0,0-.3.3.3.3,0,0,0,.3.3Zm-.1-.2h-.1v-.3h.1Zm0-.1h0Z"/><path class="e" d="M230.8,16.5a4.2,4.2,0,0,0-2.6-.7h-4c-.4,0-.5.2-.6.5L222,26.7V27h2.2c.4,0,.6-.2.6-.5l.5-2.8a.4.4,0,0,1,.1-.3l.4-.2h1.3a4.7,4.7,0,0,0,3.4-1.2,4.4,4.4,0,0,0,1.3-3.4,2.6,2.6,0,0,0-1-2.2Zm-2.1,3.1a1.5,1.5,0,0,1-.7,1.2,2.8,2.8,0,0,1-1.5.3h-.8l.4-2.7a.3.3,0,0,1,.3-.3h.5a2.8,2.8,0,0,1,1.5.3q.4.3.3,1.2Z"/><path class="f" d="M273.8,15.8h-1.9a.3.3,0,0,0-.3.3l-1.7,10.6h0a.4.4,0,0,0,.1.3h1.9a.6.6,0,0,0,.6-.5l1.6-10.4h0c0-.3-.1-.4-.3-.4Z"/><path class="e" d="M251,19.9v-.2h-2.2c-.2,0-.3,0-.4.2l-2.7,4L244.4,20c0-.3-.2-.4-.5-.4h-2.1l-.2.2c0,.1.2.6.5,1.5s.7,2,1.1,3.2l.6,1.7a24.8,24.8,0,0,0-2.1,3.1c0,.2.1.3.4.3H244l.5-.2,6.5-9.4v-.2Z"/><path class="f" d="M269.3,19.6h-2c-.2,0-.3.2-.4.8a2.5,2.5,0,0,0-2.4-1,3.8,3.8,0,0,0-3.1,1.4,4.4,4.4,0,0,0-1.3,3.2,3.2,3.2,0,0,0,.9,2.4,2.9,2.9,0,0,0,2.3.9,4,4,0,0,0,1.5-.3,3.6,3.6,0,0,0,1.2-.8v.2a.4.4,0,0,0-.1.3c0,.3.1.4.3.4H268a.6.6,0,0,0,.6-.5l1-6.6a.4.4,0,0,0-.1-.3Zm-3.4,5a2,2,0,0,1-1.5.6,1.6,1.6,0,0,1-1.2-.4,1.4,1.4,0,0,1-.5-1.1,2,2,0,0,1,.7-1.6,2.1,2.1,0,0,1,1.5-.7,1.7,1.7,0,0,1,1.2.5,1.3,1.3,0,0,1,.5,1.1,2,2,0,0,1-.7,1.6Z"/><path class="e" d="M240.4,19.6h-2c-.2,0-.4.2-.4.8a2.7,2.7,0,0,0-2.4-1,4,4,0,0,0-3.2,1.4,4.7,4.7,0,0,0-1.2,3.2,3.6,3.6,0,0,0,.8,2.4,3.2,3.2,0,0,0,2.4.9,4,4,0,0,0,1.5-.3,3.6,3.6,0,0,0,1.2-.8.9.9,0,0,0-.1.5c0,.3.1.4.3.4h1.8a.5.5,0,0,0,.5-.5l1.1-6.6a.4.4,0,0,0-.1-.3Zm-3.4,5a2.1,2.1,0,0,1-1.6.6,1.2,1.2,0,0,1-1.1-.4,1.4,1.4,0,0,1-.5-1.1,2.3,2.3,0,0,1,.6-1.6,2.6,2.6,0,0,1,1.6-.7,1.7,1.7,0,0,1,1.2.5,1.3,1.3,0,0,1,.5,1.1,1.9,1.9,0,0,1-.7,1.6Z"/><path class="f" d="M259.7,16.5a3.9,3.9,0,0,0-2.5-.7h-4.1a.6.6,0,0,0-.6.5l-1.6,10.4a.4.4,0,0,0,.1.3c0,.1.1.1.2.1h2.1c.2,0,.3-.1.4-.3l.5-3c0-.1.1-.2.2-.3l.3-.2H256a4.5,4.5,0,0,0,3.4-1.2,4.4,4.4,0,0,0,1.3-3.4,2.4,2.4,0,0,0-1-2.2Zm-2.6,4.2a3.5,3.5,0,0,1-1.7.4h-.8l.4-2.7c.1-.2.2-.3.4-.3h1.3l.7.4a.8.8,0,0,1,.3.7,1.8,1.8,0,0,1-.6,1.5Z"/><path class="g" d="M167.3,30.2l2.5-14.8h4l-2.5,14.8Zm18.6-14.4a10.4,10.4,0,0,0-3.6-.7c-4,0-6.8,2-6.8,4.9s2,3.3,3.5,4,2.1,1.2,2.1,1.9-1.3,1.4-2.4,1.4a7.6,7.6,0,0,1-3.8-.8l-.5-.2-.6,3.3a12.5,12.5,0,0,0,4.5.8c4.2,0,7-2,7-5.1s-1.1-2.9-3.4-4-2.3-1.1-2.3-1.8.8-1.3,2.4-1.3a7.9,7.9,0,0,1,3,.6l.3.2.6-3.2m10.3-.4h-3.1a2,2,0,0,0-2.1,1.3l-6,13.5h4.3s.7-1.8.8-2.2h5.2l.5,2.2h3.7l-3.3-14.8ZM191.3,25c.3-.9,1.6-4.1,1.6-4.1l.5-1.5.3,1.3s.8,3.5.9,4.3Zm-27.4-9.6-4,10.1-.4-2a11.2,11.2,0,0,0-5.6-6.2l3.6,12.9h4.3l6.3-14.8h-4.2"/><path class="h" d="M156.2,15.4h-6.4v.4c5.1,1.2,8.4,4.1,9.8,7.7l-1.4-6.8a2,2,0,0,0-1.9-1.3"/></svg>